<svg xmlns="http://www.w3.org/2000/svg" xmlns:xlink="http://www.w3.org/1999/xlink" width="500" zoomAndPan="magnify" viewBox="0 0 375 374.999991" height="500" preserveAspectRatio="xMidYMid meet" version="1.0"><defs><g/><clipPath id="7445b334e9"><path d="M 131.074219 96.683594 L 243 96.683594 L 243 172.433594 L 131.074219 172.433594 Z M 131.074219 96.683594 " clip-rule="nonzero"/></clipPath><clipPath id="5b28e73275"><path d="M 131.074219 201.074219 L 243.574219 201.074219 L 243.574219 256.574219 L 131.074219 256.574219 Z M 131.074219 201.074219 " clip-rule="nonzero"/></clipPath></defs><g clip-path="url(#7445b334e9)"><path fill="#351be2" d="M 133.011719 147.535156 L 132.984375 147.507812 L 132.949219 147.480469 C 131.8125 145.964844 131.265625 143.921875 132.949219 142.65625 L 133.101562 142.519531 L 133.171875 142.464844 L 133.230469 142.417969 C 136.789062 139.308594 140.367188 136.199219 144.175781 133.292969 C 143.632812 133.074219 143.152344 132.699219 142.789062 132.195312 L 133.316406 119.152344 C 132.261719 117.695312 132.585938 115.648438 134.039062 114.59375 C 135.492188 113.535156 137.542969 113.859375 138.597656 115.316406 L 148.066406 128.359375 C 148.4375 128.878906 148.644531 129.46875 148.679688 130.070312 C 151.445312 128.214844 154.359375 126.484375 157.507812 124.953125 C 159.300781 124.085938 161.167969 123.277344 163.097656 122.554688 L 155.367188 106.6875 C 154.582031 105.070312 155.253906 103.109375 156.875 102.320312 C 158.496094 101.535156 160.453125 102.210938 161.238281 103.832031 L 169.175781 120.128906 L 169.335938 120.507812 C 170.632812 120.148438 171.949219 119.816406 173.273438 119.519531 C 177.609375 118.550781 182.078125 117.972656 186.449219 117.816406 L 186.449219 99.953125 C 186.449219 98.15625 187.921875 96.683594 189.71875 96.683594 C 191.515625 96.683594 192.988281 98.15625 192.988281 99.953125 L 192.988281 117.902344 C 197.167969 118.1875 201.222656 118.882812 205.074219 119.902344 L 207.183594 120.511719 L 214.394531 105.726562 C 215.183594 104.101562 217.140625 103.425781 218.757812 104.214844 C 220.378906 105 221.054688 106.960938 220.265625 108.582031 L 213.359375 122.753906 C 215.46875 123.648438 217.5 124.648438 219.429688 125.730469 C 222.195312 127.289062 224.769531 129.015625 227.210938 130.871094 C 227.304688 130.648438 227.421875 130.449219 227.566406 130.25 L 237.039062 117.207031 C 238.09375 115.753906 240.140625 115.429688 241.59375 116.484375 C 243.050781 117.539062 243.375 119.585938 242.320312 121.042969 L 232.847656 134.085938 C 232.628906 134.390625 232.363281 134.652344 232.066406 134.855469 C 235.144531 137.527344 238.050781 140.332031 240.960938 143.140625 C 242.378906 144.507812 242.648438 147.90625 241 149.304688 C 234.386719 154.890625 227.746094 160.5 219.355469 164.816406 C 214.925781 167.101562 210.03125 169.023438 204.84375 170.34375 C 200.078125 171.558594 194.984375 172.289062 189.707031 172.363281 C 184.292969 172.441406 178.683594 171.828125 173.261719 170.621094 C 167.742188 169.394531 162.363281 167.527344 157.507812 165.171875 C 147.9375 160.539062 140.511719 154.070312 133.109375 147.613281 L 133.042969 147.5625 Z M 188.960938 154.726562 C 188.429688 154.925781 188.066406 154.679688 187.152344 153.96875 C 186.25 153.261719 184.789062 152.082031 183.160156 150.378906 C 181.523438 148.675781 179.71875 146.441406 178.566406 144.328125 C 177.421875 142.226562 176.929688 140.238281 176.753906 138.554688 C 176.574219 136.863281 176.699219 135.460938 177.289062 134.339844 C 177.890625 133.226562 178.953125 132.375 180.304688 132.269531 C 181.652344 132.171875 183.285156 132.800781 184.550781 133.644531 C 185.8125 134.484375 186.6875 135.53125 187.355469 136.5 C 188.015625 137.472656 188.472656 138.378906 188.710938 138.757812 C 188.957031 139.144531 188.988281 139.011719 189.214844 138.613281 C 189.441406 138.230469 189.859375 137.574219 190.527344 136.75 C 191.191406 135.921875 192.113281 134.933594 193.261719 134.046875 C 194.421875 133.152344 195.820312 132.371094 197.117188 132.410156 C 198.417969 132.457031 199.617188 133.339844 200.320312 134.679688 C 201.023438 136.015625 201.230469 137.820312 200.75 139.8125 C 200.273438 141.816406 199.097656 144.023438 197.859375 145.796875 C 196.613281 147.570312 195.304688 148.921875 194.128906 150.09375 C 192.957031 151.269531 191.933594 152.261719 191.066406 153.078125 C 190.195312 153.898438 189.492188 154.535156 188.960938 154.726562 Z M 140.140625 145.058594 C 146.351562 150.417969 152.730469 155.609375 160.347656 159.292969 C 164.753906 161.425781 169.648438 163.125 174.667969 164.242188 C 179.621094 165.34375 184.714844 165.90625 189.621094 165.835938 C 194.296875 165.769531 198.878906 165.105469 203.230469 163.992188 C 207.960938 162.792969 212.390625 161.054688 216.367188 159.007812 C 223.25 155.449219 229.023438 150.84375 234.648438 146.121094 C 228.980469 140.664062 223.191406 135.328125 216.246094 131.429688 C 212.339844 129.234375 208.011719 127.445312 203.410156 126.210938 C 199.03125 125.046875 194.378906 124.355469 189.621094 124.285156 C 184.722656 124.21875 179.628906 124.777344 174.679688 125.882812 C 169.667969 127 164.773438 128.691406 160.347656 130.839844 C 152.71875 134.53125 146.335938 139.703125 140.140625 145.058594 Z M 140.140625 145.058594 " fill-opacity="1" fill-rule="nonzero"/></g><g clip-path="url(#5b28e73275)"><path fill="#351be2" d="M 132.421875 231.15625 L 132.40625 231.144531 C 131.152344 229.882812 131.082031 227.789062 132.40625 226.460938 L 132.472656 226.40625 L 132.535156 226.34375 L 132.597656 226.289062 L 132.609375 226.269531 L 132.660156 226.238281 L 132.722656 226.183594 C 140.214844 219.652344 147.714844 213.109375 157.378906 208.433594 C 162.265625 206.058594 167.726562 204.175781 173.335938 202.925781 C 178.8125 201.703125 184.496094 201.078125 189.960938 201.15625 C 195.371094 201.230469 200.617188 202.011719 205.53125 203.316406 C 210.75 204.710938 215.644531 206.734375 220.050781 209.214844 C 228.582031 214.011719 235.230469 220.441406 241.859375 226.855469 C 243.296875 228.234375 243.570312 231.683594 241.902344 233.09375 C 235.210938 238.75 228.503906 244.410156 219.992188 248.800781 C 215.503906 251.117188 210.550781 253.066406 205.292969 254.402344 C 200.472656 255.632812 195.316406 256.375 189.960938 256.449219 C 184.496094 256.527344 178.804688 255.902344 173.320312 254.679688 C 167.71875 253.429688 162.265625 251.550781 157.378906 249.171875 C 147.714844 244.496094 140.214844 237.960938 132.722656 231.425781 L 132.660156 231.367188 L 132.609375 231.335938 L 132.535156 231.261719 Z M 189.761719 223.0625 C 192.710938 223.0625 195.105469 225.460938 195.105469 228.425781 C 195.105469 231.382812 192.710938 233.78125 189.761719 233.78125 C 186.804688 233.78125 184.410156 231.382812 184.410156 228.425781 C 184.410156 225.460938 186.804688 223.0625 189.761719 223.0625 Z M 139.777344 228.804688 C 146.058594 234.234375 152.519531 239.476562 160.253906 243.214844 C 164.730469 245.390625 169.679688 247.105469 174.746094 248.234375 C 179.753906 249.351562 184.917969 249.921875 189.882812 249.851562 C 194.617188 249.78125 199.257812 249.109375 203.664062 247.984375 C 208.449219 246.769531 212.933594 245.007812 216.964844 242.929688 C 223.910156 239.34375 229.761719 234.660156 235.46875 229.863281 C 229.734375 224.34375 223.871094 218.9375 216.828125 214.988281 C 212.878906 212.765625 208.492188 210.953125 203.84375 209.707031 C 199.414062 208.523438 194.703125 207.824219 189.882812 207.753906 C 184.917969 207.683594 179.757812 208.253906 174.757812 209.371094 C 169.6875 210.5 164.730469 212.214844 160.253906 214.390625 C 152.519531 218.128906 146.058594 223.371094 139.777344 228.804688 Z M 139.777344 228.804688 " fill-opacity="1" fill-rule="nonzero"/></g><path stroke-linecap="butt" transform="matrix(-0.747741, -0.000000000000000092, 0.000000000000000092, -0.75, 243.91556, 189.82326)" fill="none" stroke-linejoin="miter" d="M 0.00200227 3.998721 L 150.465591 3.998721 " stroke="#351be2" stroke-width="8" stroke-opacity="1" stroke-miterlimit="4"/><g fill="#351be2" fill-opacity="1"><g transform="translate(157.49483, 282.251144)"><g><path d="M 5.453125 -9.796875 C 6.410156 -9.796875 7.128906 -9.585938 7.609375 -9.171875 C 8.097656 -8.753906 8.34375 -8.144531 8.34375 -7.34375 C 8.34375 -6.894531 8.238281 -6.5 8.03125 -6.15625 C 7.820312 -5.8125 7.507812 -5.539062 7.09375 -5.34375 C 7.40625 -5.238281 7.691406 -5.082031 7.953125 -4.875 C 8.222656 -4.664062 8.441406 -4.394531 8.609375 -4.0625 C 8.773438 -3.738281 8.859375 -3.347656 8.859375 -2.890625 C 8.859375 -2.316406 8.757812 -1.84375 8.5625 -1.46875 C 8.375 -1.09375 8.117188 -0.796875 7.796875 -0.578125 C 7.484375 -0.367188 7.132812 -0.21875 6.75 -0.125 C 6.363281 -0.0390625 5.976562 0 5.59375 0 L 1.375 0 L 1.375 -9.796875 Z M 5.203125 -8.34375 L 2.890625 -8.34375 L 2.890625 -5.734375 L 5.375 -5.734375 C 5.757812 -5.742188 6.097656 -5.859375 6.390625 -6.078125 C 6.679688 -6.304688 6.828125 -6.628906 6.828125 -7.046875 C 6.828125 -7.503906 6.671875 -7.832031 6.359375 -8.03125 C 6.046875 -8.238281 5.660156 -8.34375 5.203125 -8.34375 Z M 5.453125 -4.28125 L 2.890625 -4.28125 L 2.890625 -1.453125 L 5.515625 -1.453125 C 6.046875 -1.453125 6.476562 -1.570312 6.8125 -1.8125 C 7.15625 -2.050781 7.328125 -2.414062 7.328125 -2.90625 C 7.328125 -3.257812 7.226562 -3.535156 7.03125 -3.734375 C 6.832031 -3.929688 6.585938 -4.070312 6.296875 -4.15625 C 6.015625 -4.238281 5.734375 -4.28125 5.453125 -4.28125 Z M 5.453125 -4.28125 "/></g></g></g><g fill="#351be2" fill-opacity="1"><g transform="translate(167.583513, 282.251144)"><g><path d="M 7.46875 -1.453125 L 7.46875 0 L 1.375 0 L 1.375 -9.796875 L 2.890625 -9.796875 L 2.890625 -1.453125 Z M 7.46875 -1.453125 "/></g></g></g><g fill="#351be2" fill-opacity="1"><g transform="translate(176.524835, 282.251144)"><g><path d="M 10.28125 -4.90625 C 10.28125 -4.195312 10.160156 -3.535156 9.921875 -2.921875 C 9.691406 -2.304688 9.359375 -1.769531 8.921875 -1.3125 C 8.492188 -0.851562 7.988281 -0.492188 7.40625 -0.234375 C 6.820312 0.015625 6.175781 0.140625 5.46875 0.140625 C 4.769531 0.140625 4.125 0.015625 3.53125 -0.234375 C 2.945312 -0.492188 2.441406 -0.851562 2.015625 -1.3125 C 1.585938 -1.769531 1.253906 -2.304688 1.015625 -2.921875 C 0.785156 -3.535156 0.671875 -4.195312 0.671875 -4.90625 C 0.671875 -5.613281 0.785156 -6.269531 1.015625 -6.875 C 1.253906 -7.488281 1.585938 -8.023438 2.015625 -8.484375 C 2.441406 -8.941406 2.945312 -9.296875 3.53125 -9.546875 C 4.125 -9.804688 4.769531 -9.9375 5.46875 -9.9375 C 6.175781 -9.9375 6.820312 -9.804688 7.40625 -9.546875 C 7.988281 -9.296875 8.492188 -8.941406 8.921875 -8.484375 C 9.359375 -8.023438 9.691406 -7.488281 9.921875 -6.875 C 10.160156 -6.269531 10.28125 -5.613281 10.28125 -4.90625 Z M 8.734375 -4.90625 C 8.734375 -5.582031 8.59375 -6.1875 8.3125 -6.71875 C 8.03125 -7.257812 7.644531 -7.6875 7.15625 -8 C 6.664062 -8.3125 6.101562 -8.46875 5.46875 -8.46875 C 4.832031 -8.46875 4.265625 -8.3125 3.765625 -8 C 3.273438 -7.6875 2.894531 -7.257812 2.625 -6.71875 C 2.351562 -6.1875 2.21875 -5.582031 2.21875 -4.90625 C 2.21875 -4.21875 2.351562 -3.601562 2.625 -3.0625 C 2.894531 -2.53125 3.273438 -2.109375 3.765625 -1.796875 C 4.265625 -1.484375 4.832031 -1.328125 5.46875 -1.328125 C 6.101562 -1.328125 6.664062 -1.484375 7.15625 -1.796875 C 7.644531 -2.109375 8.03125 -2.535156 8.3125 -3.078125 C 8.59375 -3.617188 8.734375 -4.226562 8.734375 -4.90625 Z M 8.734375 -4.90625 "/></g></g></g><g fill="#351be2" fill-opacity="1"><g transform="translate(188.026727, 282.251144)"><g><path d="M 5.734375 -9.890625 C 6.296875 -9.890625 6.816406 -9.804688 7.296875 -9.640625 C 7.773438 -9.484375 8.191406 -9.28125 8.546875 -9.03125 C 8.910156 -8.78125 9.195312 -8.507812 9.40625 -8.21875 L 8.421875 -7.203125 C 8.054688 -7.554688 7.648438 -7.84375 7.203125 -8.0625 C 6.753906 -8.289062 6.265625 -8.40625 5.734375 -8.40625 C 5.078125 -8.40625 4.476562 -8.25 3.9375 -7.9375 C 3.40625 -7.632812 2.984375 -7.21875 2.671875 -6.6875 C 2.367188 -6.164062 2.21875 -5.570312 2.21875 -4.90625 C 2.21875 -4.238281 2.378906 -3.632812 2.703125 -3.09375 C 3.023438 -2.550781 3.457031 -2.117188 4 -1.796875 C 4.550781 -1.484375 5.148438 -1.328125 5.796875 -1.328125 C 6.265625 -1.328125 6.703125 -1.414062 7.109375 -1.59375 C 7.523438 -1.78125 7.859375 -2.03125 8.109375 -2.34375 C 8.367188 -2.664062 8.5 -3.03125 8.5 -3.4375 C 8.5 -3.488281 8.5 -3.519531 8.5 -3.53125 L 5.71875 -3.53125 L 5.71875 -5.03125 L 10.046875 -5.03125 C 10.066406 -4.882812 10.082031 -4.738281 10.09375 -4.59375 C 10.113281 -4.457031 10.125 -4.320312 10.125 -4.1875 C 10.125 -3.675781 10.046875 -3.171875 9.890625 -2.671875 C 9.734375 -2.179688 9.492188 -1.753906 9.171875 -1.390625 C 8.796875 -0.921875 8.3125 -0.546875 7.71875 -0.265625 C 7.125 0.00390625 6.46875 0.140625 5.75 0.140625 C 5.039062 0.140625 4.378906 0.015625 3.765625 -0.234375 C 3.148438 -0.492188 2.609375 -0.851562 2.140625 -1.3125 C 1.671875 -1.769531 1.304688 -2.304688 1.046875 -2.921875 C 0.796875 -3.535156 0.671875 -4.195312 0.671875 -4.90625 C 0.671875 -5.613281 0.796875 -6.265625 1.046875 -6.859375 C 1.304688 -7.460938 1.664062 -7.988281 2.125 -8.4375 C 2.59375 -8.894531 3.132812 -9.25 3.75 -9.5 C 4.363281 -9.757812 5.023438 -9.890625 5.734375 -9.890625 Z M 5.734375 -9.890625 "/></g></g></g><g fill="#351be2" fill-opacity="1"><g transform="translate(199.304747, 282.251144)"><g><path d="M 5.6875 0 L 1.015625 0 L 1.015625 -1.40625 L 2.59375 -1.40625 L 2.59375 -8.40625 L 1.015625 -8.40625 L 1.015625 -9.796875 L 5.6875 -9.796875 L 5.6875 -8.40625 L 4.109375 -8.40625 L 4.109375 -1.40625 L 5.6875 -1.40625 Z M 5.6875 0 "/></g></g></g><g fill="#351be2" fill-opacity="1"><g transform="translate(206.553017, 282.251144)"><g><path d="M 10.28125 -4.90625 C 10.28125 -4.195312 10.160156 -3.535156 9.921875 -2.921875 C 9.691406 -2.304688 9.359375 -1.769531 8.921875 -1.3125 C 8.492188 -0.851562 7.988281 -0.492188 7.40625 -0.234375 C 6.820312 0.015625 6.175781 0.140625 5.46875 0.140625 C 4.769531 0.140625 4.125 0.015625 3.53125 -0.234375 C 2.945312 -0.492188 2.441406 -0.851562 2.015625 -1.3125 C 1.585938 -1.769531 1.253906 -2.304688 1.015625 -2.921875 C 0.785156 -3.535156 0.671875 -4.195312 0.671875 -4.90625 C 0.671875 -5.613281 0.785156 -6.269531 1.015625 -6.875 C 1.253906 -7.488281 1.585938 -8.023438 2.015625 -8.484375 C 2.441406 -8.941406 2.945312 -9.296875 3.53125 -9.546875 C 4.125 -9.804688 4.769531 -9.9375 5.46875 -9.9375 C 6.175781 -9.9375 6.820312 -9.804688 7.40625 -9.546875 C 7.988281 -9.296875 8.492188 -8.941406 8.921875 -8.484375 C 9.359375 -8.023438 9.691406 -7.488281 9.921875 -6.875 C 10.160156 -6.269531 10.28125 -5.613281 10.28125 -4.90625 Z M 8.734375 -4.90625 C 8.734375 -5.582031 8.59375 -6.1875 8.3125 -6.71875 C 8.03125 -7.257812 7.644531 -7.6875 7.15625 -8 C 6.664062 -8.3125 6.101562 -8.46875 5.46875 -8.46875 C 4.832031 -8.46875 4.265625 -8.3125 3.765625 -8 C 3.273438 -7.6875 2.894531 -7.257812 2.625 -6.71875 C 2.351562 -6.1875 2.21875 -5.582031 2.21875 -4.90625 C 2.21875 -4.21875 2.351562 -3.601562 2.625 -3.0625 C 2.894531 -2.53125 3.273438 -2.109375 3.765625 -1.796875 C 4.265625 -1.484375 4.832031 -1.328125 5.46875 -1.328125 C 6.101562 -1.328125 6.664062 -1.484375 7.15625 -1.796875 C 7.644531 -2.109375 8.03125 -2.535156 8.3125 -3.078125 C 8.59375 -3.617188 8.734375 -4.226562 8.734375 -4.90625 Z M 8.734375 -4.90625 "/></g></g></g></svg>